<svg xmlns="http://www.w3.org/2000/svg" viewBox="0 0 128.004 115.03"><defs><style>.a{fill:#4285f4;}.b{opacity:0.07;isolation:isolate;}.c{fill:#fff;}</style></defs><title>icon-google-container-engine</title><path class="a" d="M126.47,58.12l-26.3-45.74A11.559,11.559,0,0,0,90.31,6.5H37.7a11.55,11.55,0,0,0-9.86,5.88L1.53,58a11.482,11.482,0,0,0,0,11.44l26.3,46a11.768,11.768,0,0,0,9.86,6.09H90.3a11.731,11.731,0,0,0,9.87-6.06l26.3-45.74A11.732,11.732,0,0,0,126.47,58.12Z" transform="translate(-0.003 -6.5)"/><path class="b" d="M89.63,48.44,64,37,39.5,50.31l-1,29.33L80.33,121.5h10a11.731,11.731,0,0,0,9.87-6.06l20.61-35.85Z" transform="translate(-0.003 -6.5)"/><path class="c" d="M89,48,65.35,34.32a2.721,2.721,0,0,0-2.7,0L39,48a2.7,2.7,0,0,0-1.35,2.34V77.67A2.691,2.691,0,0,0,39,80L62.65,93.68a2.7,2.7,0,0,0,2.7,0L89,80a2.69,2.69,0,0,0,1.35-2.34V50.34A2.7,2.7,0,0,0,89,48ZM85.78,75.05l-8.26-4.77V57.72l-12.2,7V78.85L76.2,72.57l8.26,4.77L64,89.15,43.54,77.34l8.26-4.77,10.88,6.28V64.76l-12.2-7V70.28l-8.26,4.77V51.43L62.68,39.62v9.53L51.8,55.44l12.2,7,12.2-7L65.32,49.15V39.62L85.78,51.43Z" transform="translate(-0.003 -6.5)"/></svg>